<svg width="41" height="41" viewBox="0 0 41 41" fill="none" xmlns="http://www.w3.org/2000/svg">
<path d="M37.7328 17.0833H23.9167V3.26719C23.9167 1.46276 22.3898 0 20.5 0C18.6102 0 17.0833 1.46276 17.0833 3.26719V17.0833H3.26719C1.46276 17.0833 0 18.6102 0 20.5C0 22.3898 1.46276 23.9167 3.26719 23.9167H17.0833V37.7328C17.0833 39.5372 18.6102 41 20.5 41C22.3898 41 23.9167 39.5372 23.9167 37.7328V23.9167H37.7328C39.5372 23.9167 41 22.3898 41 20.5C41 18.6102 39.5372 17.0833 37.7328 17.0833Z" fill="white"/>
</svg>
