<svg width="30" height="30" viewBox="0 0 30 30" fill="none" xmlns="http://www.w3.org/2000/svg">
<path d="M26.9191 12.1875H17.0625V2.33086C17.0625 1.04355 15.9732 0 14.625 0C13.2768 0 12.1875 1.04355 12.1875 2.33086V12.1875H2.33086C1.04355 12.1875 0 13.2768 0 14.625C0 15.9732 1.04355 17.0625 2.33086 17.0625H12.1875V26.9191C12.1875 28.2064 13.2768 29.25 14.625 29.25C15.9732 29.25 17.0625 28.2064 17.0625 26.9191V17.0625H26.9191C28.2064 17.0625 29.25 15.9732 29.25 14.625C29.25 13.2768 28.2064 12.1875 26.9191 12.1875Z" fill="black"/>
</svg>
