<svg width="31" height="21" viewBox="0 0 31 21" fill="none" xmlns="http://www.w3.org/2000/svg">
<path d="M30.3423 0H0.689597C0.310319 0 0 0.304348 0 0.676329V20.2899C0 20.2899 0 20.2899 0 20.3237C0 20.3575 0 20.3575 0 20.3913C0 20.4251 0 20.4251 0 20.4589C0 20.4928 -3.33963e-08 20.4928 0.0344798 20.5266C0.0344798 20.5604 0.0344798 20.5604 0.0689596 20.5942C0.0689596 20.628 0.10344 20.628 0.10344 20.6618C0.10344 20.6957 0.137919 20.6957 0.137919 20.7295C0.137919 20.7295 0.137919 20.7295 0.137919 20.7633C0.137919 20.7633 0.137919 20.7633 0.172399 20.7971L0.206879 20.8309L0.241359 20.8647C0.241359 20.8647 0.275839 20.8986 0.310319 20.8986C0.344798 20.8986 0.344798 20.9324 0.379278 20.9324C0.413758 20.9324 0.413758 20.9662 0.448238 20.9662C0.482718 20.9662 0.482718 20.9662 0.517198 21C0.551677 21 0.551677 21 0.586157 21C0.620637 21 0.620637 21 0.655117 21H0.689597H30.3423C30.4112 21 30.4457 21 30.4802 21H30.5147C30.5491 21 30.5836 20.9662 30.6181 20.9662L30.6526 20.9324C30.6871 20.9324 30.7215 20.8986 30.7215 20.8647L30.756 20.8309C30.7905 20.7971 30.7905 20.7971 30.825 20.7633L30.8595 20.7295C30.8595 20.7295 30.8595 20.7295 30.8595 20.6957C30.8595 20.6618 30.8939 20.6618 30.8939 20.628C30.8939 20.628 30.9284 20.5942 30.9284 20.5604C30.9284 20.5266 30.9284 20.5266 30.9629 20.4928C30.9974 20.4589 30.9629 20.4589 30.9974 20.4251C30.9974 20.3913 30.9974 20.3913 30.9974 20.3575C30.9974 20.3237 30.9974 20.3237 30.9974 20.2899C30.9974 20.2899 30.9974 20.2899 30.9974 20.256V0.676329C31.0319 0.304348 30.7215 0 30.3423 0ZM1.37919 4.42995L10.6888 11.6667L1.37919 18.9034V4.42995ZM2.68943 19.6135L11.8266 12.5121L15.1022 15.0483C15.2401 15.1498 15.378 15.1836 15.5159 15.1836C15.6538 15.1836 15.8262 15.1498 15.9297 15.0483L19.2053 12.5121L28.3424 19.6135H2.68943ZM29.6527 18.9034L20.3431 11.6667L29.6527 4.42995V18.9034ZM29.6527 2.70531L29.2389 3.04348L15.5159 13.6957L1.79295 3.04348L1.37919 2.70531V1.35266H29.6527V2.70531Z" fill="#636363"/>
</svg>
