<svg width="48" height="48" viewBox="0 0 48 48" fill="none" xmlns="http://www.w3.org/2000/svg">
<path d="M23.6008 0C10.5683 0 0 10.5683 0 23.6008C0 36.6332 10.5683 47.2016 23.6008 47.2016C36.6332 47.2016 47.2016 36.6332 47.2016 23.6008C47.2016 10.5683 36.6332 0 23.6008 0ZM23.6008 45.1755C11.6635 45.1755 1.9713 35.4833 1.9713 23.6008C1.9713 11.6635 11.6635 2.02605 23.6008 2.02605C35.5381 2.02605 45.1755 11.7183 45.1755 23.6008C45.1755 35.5381 35.5381 45.1755 23.6008 45.1755Z" fill="black"/>
<path d="M33.6762 28.9671C30.9383 29.9528 27.817 30.5003 24.3673 30.5003C18.7819 30.5003 14.1275 29.1314 13.6347 28.9671C13.5251 28.9124 13.3609 28.9124 13.2514 28.9124C12.9776 28.9124 12.649 29.0219 12.4847 29.2957C12.3205 29.5147 12.211 29.8432 12.2657 30.117C13.3061 35.6476 18.1248 39.6997 23.6007 39.6997C29.1312 39.6997 33.8952 35.6476 34.9904 30.117C35.0451 29.7885 34.9356 29.4052 34.6618 29.1861C34.388 28.9124 34.0047 28.8576 33.6762 28.9671Z" fill="black"/>
<path d="M19.9866 18.1249C19.9866 17.7964 19.8223 17.4678 19.5485 17.2488L12.1562 12.4848C11.7181 12.211 11.061 12.3206 10.7872 12.7586C10.5134 13.1967 10.6229 13.8538 11.061 14.1276L17.0296 18.0154L11.1705 21.4104C10.6777 21.6842 10.5134 22.2866 10.7872 22.7794C10.9515 23.1079 11.3348 23.2722 11.6633 23.2722C11.8276 23.2722 11.9919 23.2174 12.1562 23.1627L19.5485 19.0011C19.8223 18.8368 19.9866 18.5082 19.9866 18.1249Z" fill="black"/>
<path d="M36.0858 21.4105L30.1719 18.0702L36.1406 14.1824C36.5786 13.9086 36.7429 13.2515 36.4144 12.8135C36.1406 12.3754 35.4835 12.2111 35.0454 12.5397L27.6531 17.3036C27.3793 17.4679 27.1602 17.7964 27.215 18.1798C27.215 18.5083 27.434 18.8369 27.7078 19.0011L35.1002 23.1628C35.2644 23.2723 35.4287 23.2723 35.593 23.2723C35.9215 23.2723 36.3049 23.108 36.4691 22.7794C36.6882 22.2866 36.5239 21.6843 36.0858 21.4105Z" fill="black"/>
</svg>
