<svg width="45" height="42" viewBox="0 0 45 42" fill="none" xmlns="http://www.w3.org/2000/svg">
<path d="M42.5161 7.42234e-08H2.48188C1.11099 0.000640943 -0.000343243 1.03853 7.95251e-08 2.31834V39.6836C0.000686725 40.9631 1.11271 42.0003 2.48394 42H42.5161C43.8876 42.0003 44.9997 40.9628 45 39.6826C45 39.6823 45 39.682 45 39.6817V2.31642C44.9993 1.03693 43.8873 -0.00032036 42.5161 7.42234e-08Z" fill="#4267B2"/>
<path d="M31.0693 42V25.7578H36.936L37.8149 19.4004H31.0693V15.3514C31.0693 13.515 31.6156 12.2637 34.437 12.2637H38.0127V6.59293C37.3906 6.5157 35.2562 6.34299 32.7726 6.34299C27.587 6.34299 24.0381 9.29611 24.0381 14.7217V19.4004H18.1934V25.7578H24.0381V42H31.0693Z" fill="white"/>
</svg>
