<svg width="50" height="44" viewBox="0 0 50 44" fill="none" xmlns="http://www.w3.org/2000/svg">
<path d="M23.4875 31.5437C24.025 30.0281 28.125 24.8062 28.125 15.625C28.125 10.4469 23.9281 6.25 18.75 6.25C13.5719 6.25 9.375 10.4469 9.375 15.625C9.375 24.8062 13.4781 30.0281 14.0125 31.5437C9.22813 31.9812 0 35.0344 0 40.625C0 41.9437 1.05 43.75 3.125 43.75H34.375C36.45 43.75 37.5 41.9437 37.5 40.625C37.5 35.0344 28.2719 31.9812 23.4875 31.5437ZM39.525 21.9969C40.2781 19.7219 43.75 13.3531 43.75 9.375C43.75 4.19688 39.55 0 34.375 0C31.75 0 29.3781 1.08125 27.6781 2.81875C31.7188 5.65 34.375 10.3313 34.375 15.625C34.375 20.3781 33.4469 24.3094 32.3594 27.3375C34.7812 28.2969 37.1313 29.5969 39.0656 31.25H46.875C48.6813 31.25 50 29.8344 50 28.125C50 24.1938 42.4312 22.5344 39.525 21.9969Z" fill="#31353F"/>
</svg>
