<svg width="50" height="50" viewBox="0 0 50 50" fill="none" xmlns="http://www.w3.org/2000/svg">
<path d="M23.4875 34.6687C24.025 33.1531 28.125 27.9312 28.125 18.75C28.125 13.5719 23.9281 9.375 18.75 9.375C13.5719 9.375 9.375 13.5719 9.375 18.75C9.375 27.9312 13.4781 33.1531 14.0125 34.6687C9.22813 35.1062 0 38.1594 0 43.75C0 45.0687 1.05 46.875 3.125 46.875H34.375C36.45 46.875 37.5 45.0687 37.5 43.75C37.5 38.1594 28.2719 35.1062 23.4875 34.6687ZM39.525 25.1219C40.2781 22.8469 43.75 16.4781 43.75 12.5C43.75 7.32188 39.55 3.125 34.375 3.125C31.75 3.125 29.3781 4.20625 27.6781 5.94375C31.7188 8.775 34.375 13.4563 34.375 18.75C34.375 23.5031 33.4469 27.4344 32.3594 30.4625C34.7812 31.4219 37.1313 32.7219 39.0656 34.375H46.875C48.6813 34.375 50 32.9594 50 31.25C50 27.3188 42.4312 25.6594 39.525 25.1219Z" fill="white"/>
</svg>
