<svg width="59" height="59" viewBox="0 0 59 59" fill="none" xmlns="http://www.w3.org/2000/svg">
<path d="M43.8711 28.2L41.5211 26.8292C38.9753 25.2625 38.9753 21.5417 41.5211 19.975L43.8711 18.6042C45.8294 17.4292 46.4169 15.0792 45.2419 13.3167L43.2836 9.9875C42.1086 8.02917 39.7586 7.44167 37.9961 8.61667L35.6461 9.9875C33.1003 11.5542 29.7711 9.59583 29.7711 6.65833V3.91667C29.7711 1.7625 28.0086 0 25.8544 0H21.9378C19.7836 0 18.0211 1.7625 18.0211 3.91667V6.4625C18.0211 9.4 14.6919 11.3583 12.1461 9.79167L9.7961 8.61667C7.83777 7.44167 5.48776 8.225 4.5086 9.9875L2.55027 13.3167C1.5711 15.275 2.1586 17.625 3.9211 18.8L6.2711 20.1708C8.81693 21.5417 8.81693 25.4583 6.2711 26.8292L3.9211 28.2C1.96277 29.375 1.37527 31.725 2.55027 33.4875L4.5086 36.8167C5.6836 38.775 8.0336 39.3625 9.7961 38.1875L12.1461 37.0125C14.6919 35.4458 18.0211 37.4042 18.0211 40.3417V43.0833C18.0211 45.2375 19.7836 47 21.9378 47H25.8544C28.0086 47 29.7711 45.2375 29.7711 43.0833V40.5375C29.7711 37.6 33.1003 35.6417 35.6461 37.2083L37.9961 38.5792C39.9544 39.7542 42.3044 38.9708 43.2836 37.2083L45.2419 33.8792C46.2211 31.725 45.6336 29.375 43.8711 28.2ZM23.8961 31.3333C19.5878 31.3333 16.0628 27.8083 16.0628 23.5C16.0628 19.1917 19.5878 15.6667 23.8961 15.6667C28.2044 15.6667 31.7294 19.1917 31.7294 23.5C31.7294 27.8083 28.2044 31.3333 23.8961 31.3333Z" fill="white"/>
</svg>
