<svg width="49" height="53" viewBox="0 0 49 53" fill="none" xmlns="http://www.w3.org/2000/svg">
<path d="M46.7969 31.4779L44.1737 29.9478C41.3319 28.199 41.3319 24.0456 44.1737 22.2969L46.7969 20.7667C48.9828 19.4551 49.6386 16.8319 48.327 14.8646L46.1411 11.1484C44.8295 8.96247 42.2063 8.30668 40.239 9.61826L37.6158 11.1484C34.774 12.8972 31.0579 10.7112 31.0579 7.43229V4.37193C31.0579 1.96737 29.0905 0 26.686 0H22.314C19.9095 0 17.9421 1.96737 17.9421 4.37193V7.21369C17.9421 10.4926 14.226 12.6786 11.3842 10.9298L8.76104 9.61826C6.57507 8.30668 3.95191 9.18106 2.85892 11.1484L0.672955 14.8646C-0.420028 17.0505 0.235762 19.6737 2.20313 20.9853L4.82629 22.5155C7.66805 24.0456 7.66805 28.4176 4.82629 29.9478L2.20313 31.4779C0.0171649 32.7895 -0.638625 35.4127 0.672955 37.38L2.85892 41.0962C4.1705 43.2821 6.79366 43.9379 8.76104 42.6264L11.3842 41.3148C14.226 39.566 17.9421 41.752 17.9421 45.0309V48.0913C17.9421 50.4958 19.9095 52.4632 22.314 52.4632H26.686C29.0905 52.4632 31.0579 50.4958 31.0579 48.0913V45.2495C31.0579 41.9706 34.774 39.7846 37.6158 41.5334L40.239 43.0636C42.4249 44.3751 45.0481 43.5007 46.1411 41.5334L48.327 37.8172C49.42 35.4127 48.7642 32.7895 46.7969 31.4779ZM24.5 34.9755C19.6909 34.9755 15.7561 31.0407 15.7561 26.2316C15.7561 21.4225 19.6909 17.4877 24.5 17.4877C29.3091 17.4877 33.2439 21.4225 33.2439 26.2316C33.2439 31.0407 29.3091 34.9755 24.5 34.9755Z" fill="#31353F"/>
</svg>
