<svg width="33" height="42" viewBox="0 0 33 42" fill="none" xmlns="http://www.w3.org/2000/svg">
<path d="M22.9985 0V8.89944H32.048L22.9985 0Z" fill="black"/>
<path d="M25.3234 27.7149C25.3234 23.6235 22.007 20.3071 17.9155 20.3071H0V35.1228H17.9155C22.007 35.1228 25.3234 31.8064 25.3234 27.7149ZM10.016 30.8231C9.81605 31.1064 9.49941 31.3564 9.05777 31.5814C8.61613 31.8064 8.0495 31.9147 7.35787 31.9147C6.49959 31.9147 5.7913 31.6397 5.23301 31.0814C4.67471 30.5231 4.39972 29.8065 4.39972 28.9232V27.3983C4.39972 26.515 4.66637 25.7984 5.20801 25.2401C5.74131 24.6818 6.43293 24.4068 7.28288 24.4068C8.13283 24.4068 8.79112 24.6235 9.26609 25.0484C9.74106 25.4734 9.97438 26.0317 9.95771 26.7233L9.94105 26.7567H8.78279C8.78279 26.3484 8.65779 26.015 8.39948 25.7651C8.14116 25.5151 7.77451 25.3901 7.29954 25.3901C6.79958 25.3901 6.39127 25.5817 6.08295 25.9567C5.77464 26.3317 5.61632 26.815 5.61632 27.39V28.9232C5.61632 29.5148 5.77464 29.9898 6.09962 30.3731C6.4246 30.7481 6.84124 30.9397 7.35787 30.9397C7.74952 30.9397 8.05783 30.8981 8.28282 30.8064C8.5078 30.7148 8.68279 30.6064 8.79945 30.4814V28.9732H7.27455V28.0649H10.016V30.8231ZM12.8242 31.8147H11.6076V24.5235H12.8242V31.8147ZM15.674 31.8147H14.4574V24.5235H19.1238V25.4984H15.674V27.7233H18.6072V28.6982H15.6657V31.8147H15.674Z" fill="black"/>
<path d="M21.9987 0.0249634H1.44165V19.2988H17.9156C22.5487 19.2988 26.3234 23.0735 26.3234 27.7066C26.3234 32.3396 22.5487 36.1144 17.9156 36.1144H1.44165V41.664H31.9981L32.0481 9.89935H21.9987V0.0249634Z" fill="black"/>
</svg>
