<svg width="43" height="40" viewBox="0 0 43 40" fill="none" xmlns="http://www.w3.org/2000/svg">
<g clip-path="url(#clip0)">
<path d="M33.9458 34.9784L33.9469 34.9795C30.4576 37.6254 26.0252 39.2085 21.2001 39.2085C13.4462 39.2085 6.70467 35.1198 3.26563 29.103L9.86388 24.0074C11.5834 28.3367 16.0102 31.4185 21.2 31.4185C23.4307 31.4185 25.5206 30.8497 27.3139 29.8565L33.9458 34.9784Z" fill="#28B446"/>
<path d="M41.2052 16.4116C41.439 17.5737 41.561 18.7737 41.561 20C41.561 21.3752 41.4077 22.7166 41.1157 24.0105C40.1245 28.4138 37.5346 32.2586 33.9468 34.9794L33.9457 34.9783L27.3138 29.8564C29.6945 28.5392 31.555 26.4781 32.535 24.0105H21.6475V16.4116H32.6939L41.2052 16.4116Z" fill="#518EF8"/>
<path d="M34.1964 5.21375L27.6003 10.3082C25.7443 9.21375 23.5506 8.58156 21.2001 8.58156C15.8928 8.58156 11.3832 11.8048 9.74986 16.2892L3.1169 11.1662H3.11575C6.50435 5.00265 13.3308 0.791561 21.2 0.791561C26.1404 0.791561 30.6701 2.45172 34.1964 5.21375Z" fill="#F14336"/>
<path d="M9.86389 24.0074L3.26564 29.103C1.71729 26.3937 0.839066 23.2939 0.839066 20C0.839066 16.8148 1.66023 13.8111 3.11566 11.1663H3.11682L9.74977 16.2892C9.32693 17.4523 9.09647 18.7009 9.09647 20C9.09647 21.41 9.36718 22.7609 9.86389 24.0074Z" fill="#FBBB00"/>
<path d="M42.0295 16.264C41.9543 15.8904 41.6081 15.6201 41.2052 15.6201H21.6475C21.1841 15.6201 20.8085 15.9745 20.8085 16.4116V24.0106C20.8085 24.4478 21.1841 24.8022 21.6475 24.8022H31.251C30.2777 26.6107 28.7614 28.1381 26.8891 29.1739C25.1727 30.1245 23.2054 30.627 21.2 30.627C16.5281 30.627 12.288 27.8552 10.6492 23.729C10.1755 22.5405 9.93543 21.2859 9.93543 20.0002C9.93543 18.8178 10.1399 17.6557 10.5433 16.5466C12.106 12.256 16.3887 9.37328 21.2 9.37328C23.314 9.37328 25.3736 9.92875 27.1555 10.9796C27.4607 11.1595 27.8534 11.1358 28.1317 10.9209L34.7278 5.82641C34.9216 5.67664 35.0344 5.45297 35.0353 5.21672C35.0362 4.98031 34.925 4.75602 34.7322 4.605C30.9412 1.63539 26.1354 0 21.2 0C13.2488 0 6.03397 4.13898 2.371 10.8015C0.819927 13.6202 0 16.8009 0 20C0 23.3082 0.873838 26.5858 2.52702 29.4786C6.23636 35.9684 13.3914 40 21.2 40C26.0141 40 30.7276 38.4361 34.4725 35.5964C38.2773 32.711 40.9279 28.6548 41.9363 24.1754C42.2439 22.812 42.4 21.4072 42.4 20C42.4 18.7426 42.2754 17.4856 42.0295 16.264ZM21.2 1.58312C25.4024 1.58312 29.5025 2.87039 32.8559 5.22594L27.5228 9.345C25.5983 8.32602 23.4253 7.78992 21.1999 7.78992C16.0711 7.78992 11.467 10.6423 9.3945 14.9918L4.18336 10.967C7.64633 5.16234 14.1049 1.58312 21.2 1.58312ZM1.67811 20C1.67811 17.3427 2.2602 14.7955 3.40716 12.4134L8.77879 16.5621C8.43321 17.6755 8.25748 18.8291 8.25748 19.9999C8.25748 21.2835 8.4665 22.5409 8.87874 23.7452L3.54462 27.8645C2.32206 25.4211 1.67811 22.7224 1.67811 20ZM4.34227 29.2944L9.53263 25.2862C10.4853 27.1601 11.9248 28.7703 13.7469 29.9832C15.9354 31.44 18.5127 32.21 21.2001 32.21C23.3057 32.21 25.3747 31.7259 27.222 30.8084L32.593 34.9566C29.2649 37.2234 25.3481 38.417 21.1999 38.417C14.2396 38.4169 7.84309 34.9378 4.34227 29.2944ZM40.295 23.8461C39.4135 27.7625 37.1667 31.327 33.9416 33.9522L28.7318 29.9285C30.812 28.521 32.4213 26.5529 33.3208 24.2882C33.4173 24.0452 33.3814 23.7728 33.2245 23.5595C33.0678 23.3463 32.8101 23.219 32.535 23.219H22.4866V17.2031H40.4977C40.6466 18.1234 40.7219 19.0614 40.7219 19.9999C40.7219 21.2966 40.5783 22.5905 40.295 23.8461Z" fill="#333333"/>
</g>
<defs>
<clipPath id="clip0">
<rect width="42.4" height="40" fill="white"/>
</clipPath>
</defs>
</svg>
