<svg width="242" height="242" viewBox="0 0 242 242" fill="none" xmlns="http://www.w3.org/2000/svg">
<path d="M151.248 131.085C145.673 131.085 141.166 135.603 141.166 141.167V181.501C141.166 187.057 136.648 191.584 131.081 191.584H100.832V40.3356C100.832 31.7245 95.3463 24.031 87.0989 21.1674L84.1135 20.1685H131.081C136.648 20.1685 141.166 24.6956 141.166 30.253V60.5027C141.166 66.0674 145.673 70.5853 151.248 70.5853C156.824 70.5853 161.331 66.0674 161.331 60.5027V30.253C161.331 13.5754 147.759 0.0032959 131.081 0.0032959H22.6873C22.3032 0.0032959 21.982 0.175002 21.609 0.224851C21.1234 0.184233 20.66 0.0032959 20.1671 0.0032959C9.04499 0.0032959 0 9.04645 0 20.1685V201.667C0 210.278 5.48534 217.971 13.7327 220.835L74.4149 241.063C76.4717 241.698 78.5173 242.001 80.6664 242.001C91.7885 242.001 100.832 232.956 100.832 221.834V211.751H131.081C147.759 211.751 161.331 198.179 161.331 181.501V141.167C161.331 135.603 156.824 131.085 151.248 131.085V131.085Z" fill="#F14336"/>
<path d="M239.043 93.7062L198.709 53.3739C195.827 50.49 191.49 49.6223 187.72 51.1842C183.959 52.748 181.498 56.4277 181.498 60.5025V90.7522H141.166C135.599 90.7522 131.081 95.2682 131.081 100.835C131.081 106.401 135.599 110.917 141.166 110.917H181.498V141.167C181.498 145.242 183.959 148.922 187.72 150.485C191.49 152.047 195.827 151.18 198.709 148.297L239.043 107.963C242.985 104.021 242.985 97.6481 239.043 93.7062V93.7062Z" fill="#F14336"/>
</svg>
