<svg width="19" height="76" viewBox="0 0 19 76" fill="none" xmlns="http://www.w3.org/2000/svg">
<path fill-rule="evenodd" clip-rule="evenodd" d="M9.5 19C4.275 19 0 14.725 0 9.5C0 4.275 4.275 0 9.5 0C14.725 0 19 4.275 19 9.5C19 14.725 14.725 19 9.5 19ZM9.5 28.5C14.725 28.5 19 32.775 19 38C19 43.225 14.725 47.5 9.5 47.5C4.275 47.5 0 43.225 0 38C0 32.775 4.275 28.5 9.5 28.5ZM9.5 57C14.725 57 19 61.275 19 66.5C19 71.725 14.725 76 9.5 76C4.275 76 0 71.725 0 66.5C0 61.275 4.275 57 9.5 57Z" fill="black"/>
</svg>
