<svg width="27" height="27" viewBox="0 0 27 27" fill="none" xmlns="http://www.w3.org/2000/svg">
<path d="M17.4003 13.9366C18.5695 13.1089 19.445 11.9306 19.9002 10.5724C20.3554 9.21406 20.3667 7.74617 19.9324 6.38106C19.4981 5.01594 18.6407 3.8244 17.4844 2.97882C16.328 2.13325 14.9326 1.67749 13.5001 1.67749C12.0675 1.67749 10.6722 2.13325 9.5158 2.97882C8.35944 3.8244 7.50208 5.01594 7.06777 6.38106C6.63346 7.74617 6.64472 9.21406 7.09992 10.5724C7.55512 11.9306 8.43066 13.1089 9.59985 13.9366C7.31981 14.6011 5.31648 15.9865 3.89002 17.8853C2.46356 19.784 1.69079 22.0939 1.6875 24.4688C1.6875 24.6926 1.77639 24.9072 1.93463 25.0654C2.09286 25.2236 2.30747 25.3125 2.53125 25.3125H24.4688C24.6925 25.3125 24.9071 25.2236 25.0654 25.0654C25.2236 24.9072 25.3125 24.6926 25.3125 24.4688C25.3092 22.0939 24.5365 19.7841 23.1101 17.8853C21.6836 15.9865 19.6803 14.6011 17.4003 13.9366ZM8.4375 8.43754C8.4375 7.43627 8.73441 6.45749 9.29069 5.62496C9.84696 4.79244 10.6376 4.14356 11.5627 3.7604C12.4877 3.37723 13.5056 3.27697 14.4876 3.47231C15.4697 3.66765 16.3717 4.1498 17.0797 4.85781C17.7877 5.56581 18.2699 6.46786 18.4652 7.44989C18.6606 8.43192 18.5603 9.44982 18.1771 10.3749C17.794 11.2999 17.1451 12.0906 16.3126 12.6469C15.4801 13.2031 14.5013 13.5 13.5 13.5C12.1578 13.4985 10.871 12.9646 9.92196 12.0156C8.97289 11.0665 8.43903 9.77973 8.4375 8.43754ZM3.41297 23.625C3.6262 21.3201 4.69189 19.1778 6.40148 17.6172C8.11108 16.0566 10.3415 15.1902 12.6562 15.1875H14.3438C16.6585 15.1902 18.8889 16.0566 20.5985 17.6172C22.3081 19.1778 23.3738 21.3201 23.587 23.625H3.41297Z" fill="#636363"/>
</svg>
