<svg width="37" height="32" viewBox="0 0 37 32" fill="none" xmlns="http://www.w3.org/2000/svg">
<path d="M28.0513 11.5391H27.4487V7.73861C27.4489 3.47154 23.4345 0 18.5002 0C13.566 0 9.55169 3.47154 9.55169 7.73861V11.5391H8.94868C7.19082 11.5391 5.76053 12.7761 5.76053 14.2965V29.2425C5.76053 30.7628 7.19082 31.9998 8.94868 31.9998H28.0513C29.8092 31.9998 31.2395 30.7628 31.2395 29.2425V14.2965C31.2395 12.7761 29.8094 11.5391 28.0513 11.5391ZM12.2844 7.73861C12.2844 4.77473 15.0728 2.36341 18.5002 2.36341C21.9275 2.36341 24.716 4.77473 24.716 7.73861V11.5391H12.2844V7.73861ZM28.5068 29.2427C28.5068 29.4562 28.2982 29.6366 28.0513 29.6366H8.94868C8.70182 29.6366 8.49323 29.4562 8.49323 29.2427V14.2965C8.49323 14.083 8.70182 13.9025 8.94868 13.9025H10.918H26.0823H28.0513C28.2982 13.9025 28.5068 14.083 28.5068 14.2965V29.2427Z" fill="#636363"/>
<path d="M18.4998 18.3257C17.7452 18.3257 17.1335 18.8547 17.1335 19.5075V24.0318C17.1335 24.6846 17.7452 25.2135 18.4998 25.2135C19.2544 25.2135 19.8662 24.6846 19.8662 24.0318V19.5075C19.8662 18.8547 19.2544 18.3257 18.4998 18.3257Z" fill="#636363"/>
</svg>
