<svg width="79" height="84" viewBox="0 0 79 84" fill="none" xmlns="http://www.w3.org/2000/svg">
<path d="M74.9275 50.4L70.7275 47.95C66.1775 45.15 66.1775 38.5 70.7275 35.7L74.9275 33.25C78.4275 31.15 79.4775 26.95 77.3775 23.8L73.8775 17.85C71.7775 14.35 67.5775 13.3 64.4275 15.4L60.2275 17.85C55.6775 20.65 49.7275 17.15 49.7275 11.9V7C49.7275 3.15 46.5775 0 42.7275 0H35.7275C31.8775 0 28.7275 3.15 28.7275 7V11.55C28.7275 16.8 22.7775 20.3 18.2275 17.5L14.0275 15.4C10.5275 13.3 6.32748 14.7 4.57748 17.85L1.07748 23.8C-0.672517 27.3 0.377483 31.5 3.52748 33.6L7.72748 36.05C12.2775 38.5 12.2775 45.5 7.72748 47.95L3.52748 50.4C0.0274831 52.5 -1.02252 56.7 1.07748 59.85L4.57748 65.8C6.67748 69.3 10.8775 70.35 14.0275 68.25L18.2275 66.15C22.7775 63.35 28.7275 66.85 28.7275 72.1V77C28.7275 80.85 31.8775 84 35.7275 84H42.7275C46.5775 84 49.7275 80.85 49.7275 77V72.45C49.7275 67.2 55.6775 63.7 60.2275 66.5L64.4275 68.95C67.9275 71.05 72.1275 69.65 73.8775 66.5L77.3775 60.55C79.1275 56.7 78.0775 52.5 74.9275 50.4ZM39.2275 56C31.5275 56 25.2275 49.7 25.2275 42C25.2275 34.3 31.5275 28 39.2275 28C46.9275 28 53.2275 34.3 53.2275 42C53.2275 49.7 46.9275 56 39.2275 56Z" fill="white"/>
</svg>
